<mxfile host="65bd71144e">
    <diagram id="HIP3nbAZw_EuaXWnEj3U" name="Page-1">
        <mxGraphModel dx="1086" dy="692" grid="1" gridSize="10" guides="1" tooltips="1" connect="1" arrows="1" fold="1" page="1" pageScale="1" pageWidth="850" pageHeight="1100" math="0" shadow="0">
            <root>
                <mxCell id="0"/>
                <mxCell id="1" parent="0"/>
                <mxCell id="4" style="edgeStyle=orthogonalEdgeStyle;html=1;rounded=0;startArrow=none;entryX=0.5;entryY=0;entryDx=0;entryDy=0;entryPerimeter=0;" parent="1" source="10" target="3" edge="1">
                    <mxGeometry relative="1" as="geometry"/>
                </mxCell>
                <mxCell id="15" style="edgeStyle=none;html=1;entryX=0.5;entryY=0;entryDx=0;entryDy=0;" parent="1" source="2" target="7" edge="1">
                    <mxGeometry relative="1" as="geometry"/>
                </mxCell>
                <mxCell id="2" value="Start" style="strokeWidth=2;html=1;shape=mxgraph.flowchart.terminator;whiteSpace=wrap;" parent="1" vertex="1">
                    <mxGeometry x="125" y="90" width="100" height="60" as="geometry"/>
                </mxCell>
                <mxCell id="3" value="Stop" style="strokeWidth=2;html=1;shape=mxgraph.flowchart.terminator;whiteSpace=wrap;" parent="1" vertex="1">
                    <mxGeometry x="125" y="600" width="100" height="60" as="geometry"/>
                </mxCell>
                <mxCell id="6" value="" style="edgeStyle=orthogonalEdgeStyle;html=1;rounded=0;endArrow=none;startArrow=none;" parent="1" source="7" target="5" edge="1">
                    <mxGeometry relative="1" as="geometry">
                        <mxPoint x="175" y="150" as="sourcePoint"/>
                        <mxPoint x="175" y="440" as="targetPoint"/>
                    </mxGeometry>
                </mxCell>
                <mxCell id="18" style="edgeStyle=none;html=1;" parent="1" source="5" target="10" edge="1">
                    <mxGeometry relative="1" as="geometry"/>
                </mxCell>
                <mxCell id="19" style="edgeStyle=none;html=1;" parent="1" source="5" target="13" edge="1">
                    <mxGeometry relative="1" as="geometry"/>
                </mxCell>
                <mxCell id="27" value="" style="edgeStyle=elbowEdgeStyle;rounded=0;html=1;" parent="1" source="5" target="13" edge="1">
                    <mxGeometry relative="1" as="geometry"/>
                </mxCell>
                <mxCell id="5" value="if&lt;br&gt;age &amp;gt;= 18" style="strokeWidth=2;html=1;shape=mxgraph.flowchart.decision;whiteSpace=wrap;" parent="1" vertex="1">
                    <mxGeometry x="125" y="280" width="100" height="100" as="geometry"/>
                </mxCell>
                <mxCell id="8" value="" style="edgeStyle=orthogonalEdgeStyle;html=1;rounded=0;endArrow=none;" parent="1" source="2" target="7" edge="1">
                    <mxGeometry relative="1" as="geometry">
                        <mxPoint x="175" y="150" as="sourcePoint"/>
                        <mxPoint x="175" y="260" as="targetPoint"/>
                    </mxGeometry>
                </mxCell>
                <mxCell id="16" style="edgeStyle=none;html=1;" parent="1" source="7" target="5" edge="1">
                    <mxGeometry relative="1" as="geometry"/>
                </mxCell>
                <mxCell id="7" value="Get&lt;br&gt;age" style="shape=parallelogram;html=1;strokeWidth=2;perimeter=parallelogramPerimeter;whiteSpace=wrap;rounded=1;arcSize=12;size=0.23;" parent="1" vertex="1">
                    <mxGeometry x="125" y="190" width="100" height="60" as="geometry"/>
                </mxCell>
                <mxCell id="11" value="" style="edgeStyle=orthogonalEdgeStyle;html=1;rounded=0;startArrow=none;entryX=0.5;entryY=0;entryDx=0;entryDy=0;entryPerimeter=0;endArrow=none;" parent="1" source="5" target="10" edge="1">
                    <mxGeometry relative="1" as="geometry">
                        <mxPoint x="175" y="360" as="sourcePoint"/>
                        <mxPoint x="175" y="480" as="targetPoint"/>
                    </mxGeometry>
                </mxCell>
                <mxCell id="10" value="Show&lt;br&gt;&quot;You can see an R &lt;br&gt;rated movie alone&quot;&amp;nbsp;" style="shape=parallelogram;html=1;strokeWidth=2;perimeter=parallelogramPerimeter;whiteSpace=wrap;rounded=1;arcSize=12;size=0.23;" parent="1" vertex="1">
                    <mxGeometry x="102.5" y="420" width="145" height="50" as="geometry"/>
                </mxCell>
                <mxCell id="26" style="edgeStyle=elbowEdgeStyle;rounded=0;html=1;entryX=1;entryY=0.5;entryDx=0;entryDy=0;entryPerimeter=0;exitX=0.5;exitY=1;exitDx=0;exitDy=0;" parent="1" source="12" target="3" edge="1">
                    <mxGeometry relative="1" as="geometry">
                        <Array as="points">
                            <mxPoint x="365" y="550"/>
                        </Array>
                    </mxGeometry>
                </mxCell>
                <mxCell id="12" value="Show&lt;br&gt;&quot;You can see an PG-13&lt;br&gt;rated movie alone&quot;&amp;nbsp;" style="shape=parallelogram;html=1;strokeWidth=2;perimeter=parallelogramPerimeter;whiteSpace=wrap;rounded=1;arcSize=12;size=0.23;" parent="1" vertex="1">
                    <mxGeometry x="290" y="410" width="145" height="60" as="geometry"/>
                </mxCell>
                <mxCell id="21" style="edgeStyle=none;html=1;entryX=0.5;entryY=0;entryDx=0;entryDy=0;" parent="1" source="13" target="12" edge="1">
                    <mxGeometry relative="1" as="geometry"/>
                </mxCell>
                <mxCell id="33" style="edgeStyle=none;html=1;entryX=0;entryY=0.5;entryDx=0;entryDy=0;entryPerimeter=0;" edge="1" parent="1" source="13" target="32">
                    <mxGeometry relative="1" as="geometry"/>
                </mxCell>
                <mxCell id="13" value="else if&lt;br&gt;age &amp;gt;= 13" style="strokeWidth=2;html=1;shape=mxgraph.flowchart.decision;whiteSpace=wrap;" parent="1" vertex="1">
                    <mxGeometry x="315" y="280" width="100" height="100" as="geometry"/>
                </mxCell>
                <mxCell id="25" style="edgeStyle=elbowEdgeStyle;rounded=0;html=1;exitX=0.5;exitY=1;exitDx=0;exitDy=0;entryX=1;entryY=0.5;entryDx=0;entryDy=0;entryPerimeter=0;" parent="1" target="3" edge="1">
                    <mxGeometry relative="1" as="geometry">
                        <mxPoint x="235" y="620" as="targetPoint"/>
                        <Array as="points">
                            <mxPoint x="680" y="620"/>
                        </Array>
                        <mxPoint x="690" y="360" as="sourcePoint"/>
                    </mxGeometry>
                </mxCell>
                <mxCell id="14" value="Show&lt;br&gt;&quot;You can see an G&lt;br&gt;rated movie alone&quot;&amp;nbsp;" style="shape=parallelogram;html=1;strokeWidth=2;perimeter=parallelogramPerimeter;whiteSpace=wrap;rounded=1;arcSize=12;size=0.23;" parent="1" vertex="1">
                    <mxGeometry x="605" y="416.25" width="150" height="52.5" as="geometry"/>
                </mxCell>
                <mxCell id="28" value="No" style="text;html=1;align=center;verticalAlign=middle;resizable=0;points=[];autosize=1;strokeColor=none;fillColor=none;" parent="1" vertex="1">
                    <mxGeometry x="215" y="305" width="40" height="30" as="geometry"/>
                </mxCell>
                <mxCell id="29" value="No" style="text;html=1;align=center;verticalAlign=middle;resizable=0;points=[];autosize=1;strokeColor=none;fillColor=none;" parent="1" vertex="1">
                    <mxGeometry x="395" y="300" width="40" height="30" as="geometry"/>
                </mxCell>
                <mxCell id="30" value="Yes" style="text;html=1;align=center;verticalAlign=middle;resizable=0;points=[];autosize=1;strokeColor=none;fillColor=none;" parent="1" vertex="1">
                    <mxGeometry x="175" y="370" width="40" height="30" as="geometry"/>
                </mxCell>
                <mxCell id="31" value="Yes" style="text;html=1;align=center;verticalAlign=middle;resizable=0;points=[];autosize=1;strokeColor=none;fillColor=none;" parent="1" vertex="1">
                    <mxGeometry x="365" y="370" width="40" height="30" as="geometry"/>
                </mxCell>
                <mxCell id="35" style="edgeStyle=none;html=1;" edge="1" parent="1" source="32" target="34">
                    <mxGeometry relative="1" as="geometry"/>
                </mxCell>
                <mxCell id="39" style="edgeStyle=none;html=1;endArrow=classic;endFill=1;" edge="1" parent="1" source="32" target="38">
                    <mxGeometry relative="1" as="geometry">
                        <mxPoint x="620" y="330" as="targetPoint"/>
                    </mxGeometry>
                </mxCell>
                <mxCell id="32" value="else if&lt;br&gt;age &amp;gt;= 9" style="strokeWidth=2;html=1;shape=mxgraph.flowchart.decision;whiteSpace=wrap;" vertex="1" parent="1">
                    <mxGeometry x="455" y="280" width="100" height="100" as="geometry"/>
                </mxCell>
                <mxCell id="36" style="edgeStyle=none;html=1;endArrow=none;endFill=0;" edge="1" parent="1" source="34">
                    <mxGeometry relative="1" as="geometry">
                        <mxPoint x="505" y="630" as="targetPoint"/>
                    </mxGeometry>
                </mxCell>
                <mxCell id="34" value="Show&lt;br&gt;&quot;You can see a G or PG&lt;br&gt;rated movie alone&quot;&amp;nbsp;" style="shape=parallelogram;html=1;strokeWidth=2;perimeter=parallelogramPerimeter;whiteSpace=wrap;rounded=1;arcSize=12;size=0.23;" vertex="1" parent="1">
                    <mxGeometry x="440" y="415" width="130" height="55" as="geometry"/>
                </mxCell>
                <mxCell id="40" style="edgeStyle=none;html=1;endArrow=none;endFill=0;" edge="1" parent="1" source="38">
                    <mxGeometry relative="1" as="geometry">
                        <mxPoint x="630" y="330" as="targetPoint"/>
                    </mxGeometry>
                </mxCell>
                <mxCell id="38" value="else&amp;nbsp;&lt;br&gt;age &amp;gt;= 6" style="strokeWidth=2;html=1;shape=mxgraph.flowchart.decision;whiteSpace=wrap;" vertex="1" parent="1">
                    <mxGeometry x="630" y="280" width="100" height="100" as="geometry"/>
                </mxCell>
            </root>
        </mxGraphModel>
    </diagram>
</mxfile>